HIERARCHY
ROOT joint_Root
{
  OFFSET 0 0 0
  CHANNELS 6 Xposition Yposition Zposition Zrotation Xrotation Yrotation
  JOINT Hips
  {
    OFFSET 0 93.9241 -3
    CHANNELS 6 Xposition Yposition Zposition Zrotation Xrotation Yrotation
    JOINT Spine
    {
      OFFSET 15.7357 0 0
      CHANNELS 6 Xposition Yposition Zposition Zrotation Xrotation Yrotation
      JOINT Chest
      {
        OFFSET 8.98455 -0.406207 0
        CHANNELS 6 Xposition Yposition Zposition Zrotation Xrotation Yrotation
        JOINT Neck
        {
          OFFSET 16.3773 0 0
          CHANNELS 6 Xposition Yposition Zposition Zrotation Xrotation Yrotation
          JOINT Head
          {
            OFFSET 6.45672 0 0
            CHANNELS 6 Xposition Yposition Zposition Zrotation Xrotation Yrotation
            End Site
            {
              OFFSET 0 0 0
            }
          }
        }
        JOINT Shoulder_L
        {
          OFFSET 12.9942 -0.242716 4.98039
          CHANNELS 6 Xposition Yposition Zposition Zrotation Xrotation Yrotation
          JOINT UpperArm_L
          {
            OFFSET 5.34809 0 0
            CHANNELS 6 Xposition Yposition Zposition Zrotation Xrotation Yrotation
            JOINT LowerArm_L
            {
              OFFSET 24.3286 1.87007e-05 0
              CHANNELS 6 Xposition Yposition Zposition Zrotation Xrotation Yrotation
              JOINT Hand_L
              {
                OFFSET 22.2916 0 0
                CHANNELS 6 Xposition Yposition Zposition Zrotation Xrotation Yrotation
                End Site
                {
                  OFFSET 0 0 0
                }
              }
            }
          }
        }
        JOINT Shoulder_R
        {
          OFFSET 12.9945 -0.242716 -4.98039
          CHANNELS 6 Xposition Yposition Zposition Zrotation Xrotation Yrotation
          JOINT UpperArm_R
          {
            OFFSET -5.34813 0 0
            CHANNELS 6 Xposition Yposition Zposition Zrotation Xrotation Yrotation
            JOINT LowerArm_R
            {
              OFFSET -24.3289 0.000322201 0
              CHANNELS 6 Xposition Yposition Zposition Zrotation Xrotation Yrotation
              JOINT Hand_R
              {
                OFFSET -22.2915 -0.000108084 0
                CHANNELS 6 Xposition Yposition Zposition Zrotation Xrotation Yrotation
                End Site
                {
                  OFFSET 0 0 0
                }
              }
            }
          }
        }
      }
    }
    JOINT UpperLeg_L
    {
      OFFSET -2.19248 -6.46944 0
      CHANNELS 6 Xposition Yposition Zposition Zrotation Xrotation Yrotation
      JOINT LowerLeg_L
      {
        OFFSET 39.0811 0 -1.23785e-05
        CHANNELS 6 Xposition Yposition Zposition Zrotation Xrotation Yrotation
        JOINT Foot_L
        {
          OFFSET 40.9854 0 -1.26872e-05
          CHANNELS 6 Xposition Yposition Zposition Zrotation Xrotation Yrotation
          JOINT Toes_L
          {
            OFFSET 11.7543 0 0
            CHANNELS 6 Xposition Yposition Zposition Zrotation Xrotation Yrotation
            End Site
            {
              OFFSET 0 0 0
            }
          }
        }
      }
    }
    JOINT UpperLeg_R
    {
      OFFSET -2.19251 6.46944 0
      CHANNELS 6 Xposition Yposition Zposition Zrotation Xrotation Yrotation
      JOINT LowerLeg_R
      {
        OFFSET -39.0811 -0.00228153 -0.0401928
        CHANNELS 6 Xposition Yposition Zposition Zrotation Xrotation Yrotation
        JOINT Foot_R
        {
          OFFSET -40.9854 0 0
          CHANNELS 6 Xposition Yposition Zposition Zrotation Xrotation Yrotation
          JOINT Toes_R
          {
            OFFSET -11.7543 0 0
            CHANNELS 6 Xposition Yposition Zposition Zrotation Xrotation Yrotation
            End Site
            {
              OFFSET 0 0 0
            }
          }
        }
      }
    }
  }
}
MOTION
Frames:	4
Frame Time:	0.0333333
0 0 0 0 0 -0 -126.188 87.537 52.9027 90.0959 -1.75076 -19.8833 15.7357 5.1072e-06 -5.51765e-07 94.1081 74.6658 -95.2732 8.98455 -0.406207 -4.3199e-07 22.8554 1.98156 -2.74248 16.3773 -1.3905e-06 -6.99897e-07 -4.47873 -1.18825 0.0281743 6.45672 -1.25837e-06 -1.02172e-07 -7.57344 -5.93347 -0.940725 12.9942 -0.242716 4.98039 -89.8237 -3.24673 -101.886 5.34809 -7.22636e-06 -6.2814e-07 -75.5495 -23.0826 17.6227 24.3286 1.87007e-05 4.90208e-06 15.4583 -1.06605 -93.8488 22.2916 -9.88446e-07 4.63217e-06 18.6941 5.39085 -2.64259 12.9945 -0.242716 -4.98039 89.9659 -1.48376 -106.325 -5.34813 -1.25947e-06 -3.79883e-06 -77.9339 0.906644 -18.3853 -24.3289 0.000322201 -8.65921e-06 12.2138 0.202875 -89.0852 -22.2915 -0.000108084 -4.47941e-06 39.9851 5.6824 -21.4995 -2.19248 -6.46944 -1.22534e-07 175.262 3.08717 -51.7389 39.0811 -6.73843e-06 -1.23785e-05 0.0841428 -0.107221 34.4112 40.9854 -6.48686e-06 -1.26872e-05 6.04707 -4.50175 -52.7197 11.7543 -2.30145e-07 3.05095e-06 0.116691 -0.132322 -17.8632 -2.19251 6.46944 -1.45247e-06 -178.101 1.42085 145.755 -39.0811 -0.00228153 -0.0401928 -0.648541 0.13064 77.9086 -40.9854 7.72618e-06 5.99936e-06 12.7353 -18.2378 -32.3917 -11.7543 -5.6619e-06 -5.58687e-06 0.438957 -0.483977 -20.2109 
0 0 0 0 0 -0 -125.923 85.6594 63.1886 91.769 -1.12599 -15.617 15.7357 5.1072e-06 -5.51765e-07 89.5137 72.9604 -90.7347 8.98455 -0.406207 -4.3199e-07 26.3086 -0.474178 -2.34962 16.3773 -1.3905e-06 -6.99897e-07 -6.39056 -1.20848 -1.10398 6.45672 -1.25837e-06 -1.02172e-07 -8.18494 -4.78346 0.506701 12.9942 -0.242716 4.98039 -89.8229 -3.46137 -102.06 5.34809 -7.22636e-06 -6.2814e-07 -80.6792 -14.187 1.64317 24.3286 1.87007e-05 4.90208e-06 17.4707 -0.995893 -93.1525 22.2916 -9.88446e-07 4.63217e-06 19.0908 5.3999 -2.93129 12.9945 -0.242716 -4.98039 89.9914 -0.301355 -106.591 -5.34813 -1.25947e-06 -3.79883e-06 -78.9665 -4.11251 -9.78615 -24.3289 0.000322201 -8.65921e-06 17.244 4.47914 -75.9045 -22.2915 -0.000108084 -4.47941e-06 40.8231 5.67609 -23.896 -2.19248 -6.46944 -1.22534e-07 172.205 2.04896 -47.14 39.0811 -6.73843e-06 -1.23785e-05 0.0966319 -0.0724409 48.7569 40.9854 -6.48686e-06 -1.26872e-05 6.1594 -4.06572 -67.4306 11.7543 -2.30145e-07 3.05095e-06 -0.0770733 0.0626912 -16.5733 -2.19251 6.46944 -1.45247e-06 -179.672 1.52688 140.137 -39.0811 -0.00228153 -0.0401928 -1.05011 0.0209891 88.1335 -40.9854 7.72618e-06 5.99936e-06 18.5679 -24.714 -34.6903 -11.7543 -5.6619e-06 -5.58687e-06 0.456962 -0.505203 -20.3657 
0 0 0 0 0 -0 -125.953 85.4193 72.9973 91.8744 0.483037 -14.56 15.7357 5.1072e-06 -5.51765e-07 89.1804 71.8605 -89.688 8.98455 -0.406207 -4.3199e-07 28.5082 -0.587131 -0.875491 16.3773 -1.3905e-06 -6.99897e-07 -7.07571 -1.94021 -4.14682 6.45672 -1.25837e-06 -1.02172e-07 -10.2098 -5.96523 4.35774 12.9942 -0.242716 4.98039 -89.9185 -5.47127 -104.143 5.34809 -7.22636e-06 -6.2814e-07 -81.9096 -5.16975 -14.1638 24.3286 1.87007e-05 4.90208e-06 19.1199 -2.98504 -98.5487 22.2916 -9.88446e-07 4.63217e-06 18.3177 5.33156 -0.824168 12.9945 -0.242716 -4.98039 89.9998 1.42471 -104.992 -5.34813 -1.25947e-06 -3.79883e-06 -75.5397 -8.35038 0.623433 -24.3289 0.000322201 -8.65921e-06 13.8242 4.63054 -71.8461 -22.2915 -0.000108084 -4.47941e-06 41.08 5.67639 -23.7414 -2.19248 -6.46944 -1.22534e-07 171.481 0.234869 -40.0795 39.0811 -6.73843e-06 -1.23785e-05 0.144897 -0.101612 51.9038 40.9854 -6.48686e-06 -1.26872e-05 7.09232 -1.92231 -75.1241 11.7543 -2.30145e-07 3.05095e-06 -0.0457966 0.00039635 -18.1213 -2.19251 6.46944 -1.45247e-06 -179.395 -0.231647 132.288 -39.0811 -0.00228153 -0.0401928 -1.09301 -0.0101683 89.7085 -40.9854 7.72618e-06 5.99936e-06 17.5194 -24.453 -43.5049 -11.7543 -5.6619e-06 -5.58687e-06 0.441027 -0.486408 -20.2286 
0 0 0 0 0 -0 -126.296 86.4707 82.2773 89.7954 0.712704 -15.6624 15.7357 5.1072e-06 -5.51765e-07 88.6162 71.7807 -87.8924 8.98455 -0.406207 -4.3199e-07 28.6687 -0.710452 1.64326 16.3773 -1.3905e-06 -6.99897e-07 -7.97226 -1.27396 -4.99824 6.45672 -1.25837e-06 -1.02172e-07 -9.61468 -5.16622 2.18929 12.9942 -0.242716 4.98039 -89.8555 -8.61023 -104.035 5.34809 -7.22636e-06 -6.2814e-07 -84.6852 -0.83404 -25.106 24.3286 1.87007e-05 4.90208e-06 16.338 -5.1626 -107.061 22.2916 -9.88446e-07 4.63217e-06 15.5073 5.32349 -0.588821 12.9945 -0.242716 -4.98039 89.9956 0.200502 -103.66 -5.34813 -1.25947e-06 -3.79883e-06 -72.65 -8.81717 11.4496 -24.3289 0.000322201 -8.65921e-06 11.6905 2.80586 -76.689 -22.2915 -0.000108084 -4.47941e-06 38.3076 5.68254 -22.0993 -2.19248 -6.46944 -1.22534e-07 173.922 -2.55515 -35.8533 39.0811 -6.73843e-06 -1.23785e-05 0.0265997 -0.0130176 52.6335 40.9854 -6.48686e-06 -1.26872e-05 5.16542 0.553587 -71.21 11.7543 -2.30145e-07 3.05095e-06 1.80189 0.575356 -28.5451 -2.19251 6.46944 -1.45247e-06 -178.408 -4.05462 124.774 -39.0811 -0.00228153 -0.0401928 -0.699098 0.0899934 81.6144 -40.9854 7.72618e-06 5.99936e-06 11.8843 -21.1905 -52.1982 -11.7543 -5.6619e-06 -5.58687e-06 0.414799 -0.455694 -20.0039 
